# xmcd CD database file
#
# Track frame offsets:
#	150
#	14437
#	28955
#	42657
#	56894
#	71061
#	84474
#	98044
#	111726
#	121655
#	134773
#	146916
#	160449
#	172126
#	183383
#	197130
#	209087
#	220448
#	239289
#	260178
#
# Disc length: 3772 seconds
#
# Revision: 0
# Processed by: cddbd v1.4PL0 Copyright (c) Steve Scherf et al.
# Submitted via: CDex 1.40Beta8
#
DISCID=530eba14
DTITLE=John Lee Hooker - BLUES GIANT-BEST SELECTIONS 5
DYEAR=1900
DGENRE=Blues
TTITLE0=Boogie Chillen
TTITLE1=Sally mae
TTITLE2=Hobo Blues
TTITLE3=Turn Over A New Leaf
TTITLE4=I'm In The Mood
TTITLE5=Wednesday Evening
TTITLE6=Drifting From Door To Door
TTITLE7=Crawling Kingsnake
TTITLE8=Dimples
TTITLE9=I'm So Excited
TTITLE10=Everybody Rockin'
TTITLE11=Baby Lee
TTITLE12=I Love You Honey
TTITLE13=You've Taken My Woman
TTITLE14=Time Is Marchin'
TTITLE15=Little Wheel
TTITLE16=Boom Boom
TTITLE17=I Feel Good
TTITLE18=Looking Back Over My Day
TTITLE19=Roll and Tumble
EXTD=ID3G: 0
EXTT0=
EXTT1=
EXTT2=
EXTT3=
EXTT4=
EXTT5=
EXTT6=
EXTT7=
EXTT8=
EXTT9=
EXTT10=
EXTT11=
EXTT12=
EXTT13=
EXTT14=
EXTT15=
EXTT16=
EXTT17=
EXTT18=
EXTT19=
PLAYORDER=
